<?xml version="1.0" encoding="UTF-8"?>
<svg xmlns="http://www.w3.org/2000/svg" width="746.682" height="140.005" viewBox="0 0 746.682 140.005">
  <g id="Gruppe_11" data-name="Gruppe 11" transform="translate(-47.993 -88)">
    <path id="Pfad_1" data-name="Pfad 1" d="M145.207,26.551c-5.019-5.446-12.459-7.119-17.442-3.56a13.064,13.064,0,0,0-3.132,15.983Zm9.753,3.56a17.8,17.8,0,0,1,.89,5.517,18.138,18.138,0,1,1-2.99-9.646L126.413,42.32a3.242,3.242,0,0,0,.285.463c4.948,6.87,13.455,9.255,18.973,5.3a12.708,12.708,0,0,0,3.56-14.238Z" transform="translate(351.834 133.637)" fill="#75160d"></path>
    <path id="Pfad_2" data-name="Pfad 2" d="M186.14,26.279c-5.019-5.446-12.459-7.119-17.442-3.56a13.1,13.1,0,0,0-3.132,16.018Zm9.931,3.738a17.8,17.8,0,0,1,.89,5.482A18.581,18.581,0,1,1,178.38,17.7a18.8,18.8,0,0,1,15.591,8.187L167.523,42.226a2.954,2.954,0,0,0,.285.427c4.948,6.906,13.455,9.291,18.973,5.3a12.708,12.708,0,0,0,3.56-14.238Z" transform="translate(457.058 133.305)" fill="#75160d"></path>
    <path id="Pfad_3" data-name="Pfad 3" d="M225.827,26.211c-5.019-5.411-12.423-7.119-17.442-3.56a13.135,13.135,0,0,0-3.132,16.018Zm9.753,3.56a16.769,16.769,0,0,1,.89,5.517,18.138,18.138,0,1,1-2.99-9.646L207.033,41.98a2.949,2.949,0,0,0,.285.427c4.948,6.906,13.455,9.29,18.973,5.3a12.636,12.636,0,0,0,3.56-14.238Z" transform="translate(558.188 132.767)" fill="#75160d"></path>
    <path id="Pfad_4" data-name="Pfad 4" d="M137.98,49.413c-2.243-.57-4.343-2.6-6.514-.32h0c-7.475,6.087-17.442,10.358-25.131,1.281h0a3.987,3.987,0,0,0-2.171-.641,3.809,3.809,0,0,0-3.844,3.56,3.559,3.559,0,0,0,.925,2.421h0c2.634,3.773,8.9,5.731,15.84,4.983a21.357,21.357,0,0,0,13.064-6.336c2.527-2.634,2.492.783,1.531,2.527-5.09,10.679-13.669,17.8-24.917,17.8l-2.314-.214c-9.54-1.21-15.8-5.553-22.924-14.06l-.214-.356a42.217,42.217,0,0,1-6.372-18.4,27.8,27.8,0,0,1,27.444-29.794,27.266,27.266,0,0,1,22.959,12.957,17.014,17.014,0,0,1,.427,3.773,4.663,4.663,0,1,0,9.184-.712,5.873,5.873,0,0,0-.463-1.851v-.392c-4.663-11.889-17.8-17.513-31.182-17.513a35.6,35.6,0,1,0,20.539,64.393h0l-4.022,17.549c-3.026,15.84-15.413,26.8-27.658,24.454C82.095,112.6,75.261,102.308,74.8,89.921h0c0-4.094-2.029-7.368-4.449-7.368s-4.022,2.705-4.378,6.265h0v2.349c0,15.377,13.526,27.8,30.221,27.8a30.185,30.185,0,0,0,28.477-18.51l.925-2.385.89-3.56,11.533-45.1" transform="translate(216.856 108.782)" fill="#75160d"></path>
    <path id="Pfad_5" data-name="Pfad 5" d="M112.224,22.467A16.552,16.552,0,0,0,91.436,28.91a13.826,13.826,0,1,0,24.276,13.242c3.56-6.763,3.239-16.018-3.56-19.684m1.068,28.761A17.264,17.264,0,0,1,95,52.4a17.8,17.8,0,0,1-6.585-24.17c4.77-8.757,17.8-13.17,26.376-8.579a12.993,12.993,0,0,1,3.916,3.239h0l.285-1.317,7.3-1.851-6.336,26.732c-.925,4.058,1.851,3.738,3.56,2.67h.249l6.372-4.343,1.032,1.78-8.009,6.016c-3.773,2.492-8.365,2.171-9.824-1.175" transform="translate(268.384 133.593)" fill="#75160d"></path>
    <path id="Pfad_6" data-name="Pfad 6" d="M132.529,36.482a16.588,16.588,0,0,0-20.824,6.443,13.826,13.826,0,1,0,24.276,13.242c3.56-6.8,3.239-16.018-3.56-19.684m7.938,2.385,6.051-23.137-6.656,1.6v-1.6l15.555-3.56L141.072,61.755c-.926,3.56,1.709,3.56,3.2,2.492h.249l6.051-3.916,1,1.637-7.689,5.446c-3.987,2.492-8.97,1.709-9.611-2.421h0A17.3,17.3,0,0,1,115.336,66.7a17.8,17.8,0,0,1-6.55-24.561c4.77-8.792,17.976-13.17,26.377-8.579a12.85,12.85,0,0,1,5.3,5.375" transform="translate(320.089 119.15)" fill="#75160d"></path>
    <path id="Pfad_7" data-name="Pfad 7" d="M111.517,31.816a11.747,11.747,0,0,1,6.122-5.98c3.56-1.175,3.56,5.339,8.472,2.954,3.56-2.349,3.56-4.734,1.175-8.294-4.734-5.909-10.679,1.21-14.025,4.271v-.356l1.78-6.692L99.058,21.956v1.78l7.582-1.887L98.56,53.1l8.08-2.527Z" transform="translate(300.273 133.356)" fill="#75160d"></path>
    <path id="Pfad_8" data-name="Pfad 8" d="M178.035,50.175,169.99,52.7l8.08-31.253-7.582,1.887v-1.78l15.947-4.236-1.744,6.692v.249c3.382-3.1,9.29-10.18,14.025-4.272,2.349,3.56,2.349,5.909-1.21,8.294-4.7,2.385-4.912-4.165-8.472-2.954a11.676,11.676,0,0,0-6.087,6.087Z" transform="translate(483.104 132.332)" fill="#75160d"></path>
    <path id="Pfad_9" data-name="Pfad 9" d="M154.941,30.24c0-.285,0-.819-.534-.392h0L135.862,51.064a4.485,4.485,0,0,1-4.378,1.709,3.56,3.56,0,0,1-2.634-4.663V47.9l.641-2.1,6.621-23.814L128.6,23.441V21.875l12.459-2.848c1.139-.32,2.136-.534,2.776.214s.214,1.175,0,2.349l-4.627,16.979c-.249.712,0,1.21.712.748L158.5,18.778a2.349,2.349,0,0,1,3.026-.961c.712.32.89.783.89,2.029V44.763c0,1.139.676,2.883,2.776,1.993h0l9.041-5.161,1.851,1.815-13.633,8.757h-.214a5.518,5.518,0,0,1-1.744.748,4.734,4.734,0,0,1-5.375-2.741,4.2,4.2,0,0,1,0-.961V30.382" transform="translate(377.162 133.045)" fill="#75160d"></path>
    <path id="Pfad_10" data-name="Pfad 10" d="M178.8,48.093s.5,4.378,2.563,4.912a4.556,4.556,0,0,0,4.378-1.709l18.581-21h0c.427-.427.534,0,.534.392V49.3a3.56,3.56,0,0,0,3.026,3.56,4.414,4.414,0,0,0,4.378-1.709L230.846,30.01h0c.463-.427.534,0,.534.392V49.588a2.956,2.956,0,0,0,0,.961,4.592,4.592,0,0,0,5.339,2.705,4.521,4.521,0,0,0,1.744-.712h.214l13.633-8.757-1.851-1.851-9.041,5.2h0c-2.136.854-2.812-.925-2.812-2.065V19.616c0-1.246-.178-1.709-.89-2.029a2.349,2.349,0,0,0-3.026.961L212.8,42.86h0c-.392.392-.712.249-.712-.249V19.972c0-1.246-.214-1.673-.89-2.029a2.349,2.349,0,0,0-3.026,1l-17.05,18.723v.178l-1.353,1.5c-.57.463-.961,0-.712-.748l4.628-16.979c.392-1.21.747-1.709,0-2.349s-1.637-.534-2.776-.214L178.52,22v1.637l7.546-1.459L179.41,45.993Z" transform="translate(504.937 132.456)" fill="#75160d"></path>
    <path id="Pfad_11" data-name="Pfad 11" d="M225.7,24.551a89.452,89.452,0,0,0,28.014-.392c15.306-2.67,27.587-7.867,29.829-12.352A20.217,20.217,0,0,1,285.36,9.53a4.877,4.877,0,0,1,6.514-.57,4.129,4.129,0,0,1-.5,6.443,12.886,12.886,0,0,1-3.738,1.6A101.2,101.2,0,0,1,253.359,28.4,109.351,109.351,0,0,1,225.2,27.79l-8.116-1.709L199.539,95.138l-.89,3.56-.925,2.385a30.185,30.185,0,0,1-28.477,18.51c-16.73,0-30.256-12.459-30.256-27.8V89.407h0c.356-3.56,2.171-6.229,4.378-6.229s4.414,3.275,4.449,7.333h0c.427,12.423,7.119,22.71,17.335,24.632,12.245,2.314,25.593-8.614,28.477-24.454L197.581,74.1l12.637-48.873a89.488,89.488,0,0,0-32.036-1.709,118.64,118.64,0,0,0-22.924,4.058h0c-.5.178-.748.427-.961,1.281h0a5.161,5.161,0,0,1-4.841,2.67c-2.776,0-5.019-1.673-5.019-3.738a2.705,2.705,0,0,1,.392-1.353h0c4.983-6.158,12.209-6.763,36.2-7.119a112.625,112.625,0,0,1,26.8,2.243Z" transform="translate(403.757 108.407)" fill="#75160d"></path>
    <path id="Pfad_12" data-name="Pfad 12" d="M57.99,81.195l1.21-3.844,9.148-33.709L94.69,37.127,85.435,72.616l8.579-1.78L109.177,11l-7.368,2.1L95.58,33.212,69.844,39.726,76.963,11H37.1c-3.56,0-9.967,5.411-10.679,14.238a16.232,16.232,0,0,0,16.872,17.8h0c4.414,0,4.378-3.987,3.382-4.663a3.346,3.346,0,0,0-2.065-.676h0A16.73,16.73,0,0,1,32.86,30.934c-3.56-7.119.605-17.371,6.514-17.478H67.85L50.159,82.939C47.063,94.4,30.51,104.3,17.482,94.828a23.564,23.564,0,0,1-8.9-17.264v-.285c0-4.805-8.863-7.3-8.579,1.78v.285c5.339,20.325,25.7,26.519,42.252,19.435A31.538,31.538,0,0,0,57.919,81.231" transform="translate(47.995 116.155)" fill="#75160d"></path>
    <path id="Pfad_13" data-name="Pfad 13" d="M37.88,23.739c-5.553,3.987-6.016,12.779-1.068,19.685s13.42,9.291,18.973,5.3S61.8,35.948,56.852,29.043,43.4,19.824,37.88,23.739m27.231,12.6a18.581,18.581,0,1,1-18.581-17.8,18.261,18.261,0,0,1,18.581,17.8" transform="translate(119.577 135.453)" fill="#75160d"></path>
    <path id="Pfad_14" data-name="Pfad 14" d="M46.27,65.195c-1.032,4.058,2.065,3.738,3.809,2.67h.32l7.119-4.343,1.175,1.78-8.97,6.016c-5.589,3.346-12.921,1.6-11.248-5.517L51.965,14.969l-7.831,1.887v-1.78L60.651,10.84Z" transform="translate(145.858 115.746)" fill="#75160d"></path>
    <path id="Pfad_15" data-name="Pfad 15" d="M37.632,26.006l-.142,2.349,34.172-9.184V16.68Z" transform="translate(143.959 130.694)" fill="#75160d"></path>
    <path id="Pfad_16" data-name="Pfad 16" d="M70.827,27.3c-5.019-5.446-12.423-7.119-17.442-3.56a13.1,13.1,0,0,0-3.132,16.018Zm9.753,3.56a16.694,16.694,0,0,1,.89,5.482A18.581,18.581,0,1,1,62.89,18.54a18.8,18.8,0,0,1,15.591,8.187L52.033,43.066a2.954,2.954,0,0,0,.285.427c5.09,6.87,13.455,9.219,18.973,5.161a12.637,12.637,0,0,0,3.916-14.238Z" transform="translate(161.452 135.455)" fill="#75160d"></path>
    <path id="Pfad_17" data-name="Pfad 17" d="M76.966,10.78,60.45,15.123v1.744l7.831-1.851L54.754,65.6c-1.673,7.119,5.66,8.9,11.248,5.553l8.97-6.194L73.8,63.177,66.679,67.52l-.32.178c-1.744,1.068-4.841,1.388-3.809-2.67Z" transform="translate(187.528 115.592)" fill="#75160d"></path>
    <path id="Pfad_18" data-name="Pfad 18" d="M29.965,0l-3.2,8.472L17.72,8.9l7.119,5.66L22.276,23.28,29.823,18.3,37.4,23.244l-2.421-8.721L42.1,8.863l-9.041-.392ZM64.991,0,61.823,8.472,52.782,8.9l7.119,5.66L57.516,23.28,64.991,18.3l7.582,4.948-2.421-8.721,7.119-5.66L68.23,8.472ZM99.875,0,96.707,8.472,87.666,8.9l7.119,5.66L92.4,23.28,99.946,18.3l7.546,4.948-2.634-8.721,7.119-5.66-9.041-.392Zm34.884,0-3.168,8.472-9.077.427,7.119,5.66-2.421,8.721,7.546-4.983,7.582,4.948-2.6-8.721,7.119-5.66-9.077-.392Z" transform="translate(93.356 88)" fill="#6b111b"></path>
    <path id="Pfad_19" data-name="Pfad 19" d="M59.06,15.427A10.679,10.679,0,0,0,63.83,16.5c1.993,0,3.026-.819,3.026-2.065s-.89-1.887-3.2-2.705c-3.168-1.1-5.233-2.848-5.233-5.624S61.124.512,65.645.512a11.426,11.426,0,0,1,4.877.961l-.961,3.56a9.4,9.4,0,0,0-3.987-.89C63.687,4.143,62.8,5,62.8,5.994s1.068,1.744,3.56,2.67c3.382,1.246,4.948,3.026,4.948,5.7s-2.492,5.7-7.724,5.7a12.921,12.921,0,0,1-5.411-1.139Z" transform="translate(196.891 89.303)" fill="#6b111b"></path>
    <rect id="Rechteck_2525" data-name="Rechteck 2525" width="746.658" height="139.892" transform="translate(48 88)" fill="none"></rect>
  </g>
</svg>
